<?xml version="1.0" encoding="UTF-8"?>
<svg version="1.1" xmlns="http://www.w3.org/2000/svg" width="96" height="96">
<path d="M0 0 C1.32 0 2.64 0 4 0 C4.495 7.425 4.495 7.425 5 15 C5.66 13.35 6.32 11.7 7 10 C9.0625 9.125 9.0625 9.125 11 9 C11.495 9.495 11.495 9.495 12 10 C11.91062197 11.52519276 11.75462854 13.04681929 11.5625 14.5625 C11.46066406 15.38878906 11.35882813 16.21507813 11.25390625 17.06640625 C11.17011719 17.70449219 11.08632812 18.34257812 11 19 C12.12148437 17.80890625 12.12148437 17.80890625 13.265625 16.59375 C14.25987669 15.56197938 15.25469829 14.53075775 16.25 13.5 C16.74113281 12.97535156 17.23226562 12.45070313 17.73828125 11.91015625 C19.08346642 10.52909948 20.5385286 9.25735528 22 8 C23.32 8 24.64 8 26 8 C25.64008282 13.04806914 22.95601959 15.52239866 19.4375 18.8125 C18.91736328 19.31458984 18.39722656 19.81667969 17.86132812 20.33398438 C16.5831143 21.56529127 15.29272853 22.7839407 14 24 C14.73605469 23.71125 15.47210938 23.4225 16.23046875 23.125 C17.20628906 22.75375 18.18210937 22.3825 19.1875 22 C20.15042969 21.62875 21.11335938 21.2575 22.10546875 20.875 C24.92182358 20.02363228 27.08164439 19.82927353 30 20 C30 21.32 30 22.64 30 24 C29.37351562 24.27714844 28.74703125 24.55429687 28.1015625 24.83984375 C27.28429687 25.20207031 26.46703125 25.56429687 25.625 25.9375 C24.81289062 26.29714844 24.00078125 26.65679687 23.1640625 27.02734375 C21.76316215 27.6569903 20.37374716 28.31312642 19 29 C23.95 29.33 28.9 29.66 34 30 C34 31.32 34 32.64 34 34 C29.05 34.33 24.1 34.66 19 35 C19.495 37.475 19.495 37.475 20 40 C18.35 40.33 16.7 40.66 15 41 C15.7940625 41.74765625 16.588125 42.4953125 17.40625 43.265625 C18.43802062 44.25987669 19.46924225 45.25469829 20.5 46.25 C21.02464844 46.74113281 21.54929687 47.23226562 22.08984375 47.73828125 C23.47090052 49.08346642 24.74264472 50.5385286 26 52 C26 53.32 26 54.64 26 56 C20.95193086 55.64008282 18.47760134 52.95601959 15.1875 49.4375 C14.68541016 48.91736328 14.18332031 48.39722656 13.66601562 47.86132812 C12.43470873 46.5831143 11.2160593 45.29272853 10 44 C10.495 45.36125 10.495 45.36125 11 46.75 C12 50 12 50 12 54 C10.35 54 8.7 54 7 54 C6.34 52.35 5.68 50.7 5 49 C4.67 53.95 4.34 58.9 4 64 C2.68 64 1.36 64 0 64 C-0.33 58.72 -0.66 53.44 -1 48 C-1.495 48.99 -1.495 48.99 -2 50 C-3.175625 49.7525 -3.175625 49.7525 -4.375 49.5 C-6.88208039 48.9376293 -6.88208039 48.9376293 -9 49 C-10.61278623 50.36699197 -10.61278623 50.36699197 -12.30078125 52.17578125 C-12.94853516 52.83900391 -13.59628906 53.50222656 -14.26367188 54.18554688 C-15.61806183 55.59158182 -16.97223235 56.99782818 -18.32617188 58.40429688 C-21.72976681 61.88868932 -24.79874496 64.51437001 -29 67 C-31.89454117 69.70509701 -34.57460212 72.62508639 -37.27148438 75.52539062 C-37.82255859 76.09837891 -38.37363281 76.67136719 -38.94140625 77.26171875 C-39.43326416 77.78725342 -39.92512207 78.31278809 -40.43188477 78.85424805 C-42 80 -42 80 -46 80 C-45.72466204 74.52383396 -42.46687894 72.07104397 -38.6875 68.5625 C-33.98167175 64.13941182 -33.98167175 64.13941182 -30.03515625 59.05078125 C-27.3834396 55.07575111 -24.16289193 51.94771389 -20.75 48.625 C-20.1003125 47.98433594 -19.450625 47.34367187 -18.78125 46.68359375 C-17.19199115 45.11770636 -15.59823583 43.55671491 -14 42 C-15.38058594 42.49113281 -15.38058594 42.49113281 -16.7890625 42.9921875 C-20.05780017 44.01814166 -22.60001253 44.16190417 -26 44 C-26 42.68 -26 41.36 -26 40 C-20.06 37.525 -20.06 37.525 -14 35 C-19.28 34.67 -24.56 34.34 -30 34 C-30 32.68 -30 31.36 -30 30 C-24.72 29.67 -19.44 29.34 -14 29 C-14.33 27.68 -14.66 26.36 -15 25 C-13.68 24.34 -12.36 23.68 -11 23 C-11.7940625 22.25234375 -12.588125 21.5046875 -13.40625 20.734375 C-14.43802062 19.74012331 -15.46924225 18.74530171 -16.5 17.75 C-17.02464844 17.25886719 -17.54929687 16.76773437 -18.08984375 16.26171875 C-19.47090052 14.91653358 -20.74264472 13.4614714 -22 12 C-22 10.68 -22 9.36 -22 8 C-17.07215495 8.417313 -15.0222855 10.54985927 -11.6875 14.0625 C-10.80449219 14.98160156 -9.92148437 15.90070312 -9.01171875 16.84765625 C-8.34785156 17.55792969 -7.68398438 18.26820312 -7 19 C-6.34 18.01 -5.68 17.02 -5 16 C-3.68 16 -2.36 16 -1 16 C-0.67 10.72 -0.34 5.44 0 0 Z " fill="#FEC007" transform="translate(54,8)"/>
<path d="M0 0 C-1.14618396 7.53206603 -5.81489169 11.70766641 -11 17 C-11.95454728 17.9933741 -12.90897184 18.98686614 -13.86328125 19.98046875 C-21.24345853 27.56245259 -21.24345853 27.56245259 -24.41796875 29.3984375 C-28.68953055 32.04796902 -31.86541388 35.8624051 -35.27148438 39.52539062 C-35.82255859 40.09837891 -36.37363281 40.67136719 -36.94140625 41.26171875 C-37.43326416 41.78725342 -37.92512207 42.31278809 -38.43188477 42.85424805 C-40 44 -40 44 -44 44 C-43.72466204 38.52383396 -40.46687894 36.07104397 -36.6875 32.5625 C-31.99918475 28.1609195 -31.99918475 28.1609195 -28.06640625 23.09765625 C-25.24962611 18.8751484 -21.82679259 15.45844091 -18.25 11.875 C-17.57195313 11.17246094 -16.89390625 10.46992187 -16.1953125 9.74609375 C-6.5044896 0 -6.5044896 0 0 0 Z " fill="#637A8B" transform="translate(52,44)"/>
<path d="M0 0 C1.32 1.32 2.64 2.64 4 4 C1.59976384 6.5162327 -0.82270018 9.00988651 -3.25 11.5 C-3.93191406 12.21542969 -4.61382812 12.93085937 -5.31640625 13.66796875 C-5.98027344 14.34472656 -6.64414062 15.02148438 -7.328125 15.71875 C-8.23933105 16.66137695 -8.23933105 16.66137695 -9.16894531 17.62304688 C-11 19 -11 19 -15 19 C-14.83566075 13.27003831 -10.82273925 10.37524908 -6.9375 6.6875 C-6.27427734 6.04232422 -5.61105469 5.39714844 -4.92773438 4.73242188 C-3.29382329 3.14552982 -1.65131853 1.56873672 0 0 Z " fill="#AFBDC4" transform="translate(23,69)"/>
<path d="M0 0 C2.625 0.375 2.625 0.375 5 1 C5.625 3.375 5.625 3.375 6 6 C5.34 6.66 4.68 7.32 4 8 C1.375 7.625 1.375 7.625 -1 7 C-1.625 4.625 -1.625 4.625 -2 2 C-1.34 1.34 -0.68 0.68 0 0 Z " fill="#FFE9A7" transform="translate(54,36)"/>
<path d="M0 0 C2.375 0.1875 2.375 0.1875 5 1 C6.86007925 4.27728249 7 6.1659754 7 10 C5.35 10 3.7 10 2 10 C0.39644899 6.49223216 -0.22036864 3.85645121 0 0 Z " fill="#FFC306" transform="translate(44,12)"/>
<path d="M0 0 C2.31 0.66 4.62 1.32 7 2 C7 3.65 7 5.3 7 7 C3.625 6.75 3.625 6.75 0 6 C-1.4375 3.9375 -1.4375 3.9375 -2 2 C-1.34 1.34 -0.68 0.68 0 0 Z " fill="#FFC005" transform="translate(29,27)"/>
<path d="M0 0 C0.99 0.33 1.98 0.66 3 1 C2.125 6.75 2.125 6.75 1 9 C-0.65 8.67 -2.3 8.34 -4 8 C-3.40138258 5.64828869 -2.73075648 3.3140622 -2 1 C-1.34 0.67 -0.68 0.34 0 0 Z " fill="#FFC005" transform="translate(47,59)"/>
<path d="M0 0 C2.33944736 0.28730055 4.6739143 0.61936779 7 1 C7.33 2.65 7.66 4.3 8 6 C5.36 5.67 2.72 5.34 0 5 C-0.5625 3.0625 -0.5625 3.0625 -1 1 C-0.67 0.67 -0.34 0.34 0 0 Z " fill="#FFC106" transform="translate(76,46)"/>
<path d="M0 0 C1.32 0 2.64 0 4 0 C4 1.32 4 2.64 4 4 C2.68 4 1.36 4 0 4 C0 2.68 0 1.36 0 0 Z " fill="#FFC006" transform="translate(64,64)"/>
<path d="M0 0 C1.32 0 2.64 0 4 0 C4 1.32 4 2.64 4 4 C2.68 4 1.36 4 0 4 C0 2.68 0 1.36 0 0 Z " fill="#FFC006" transform="translate(64,12)"/>
</svg>
